<?xml version="1.0" encoding="UTF-8" standalone="no"?>
<svg
   width="30"
   height="26"
   viewBox="0 0 30 26"
   fill="none"
   version="1.1"
   id="svg2"
   sodipodi:docname="car_edit.svg"
   inkscape:version="1.3 (0e150ed, 2023-07-21)"
   xmlns:inkscape="http://www.inkscape.org/namespaces/inkscape"
   xmlns:sodipodi="http://sodipodi.sourceforge.net/DTD/sodipodi-0.dtd"
   xmlns="http://www.w3.org/2000/svg"
   xmlns:svg="http://www.w3.org/2000/svg">
  <sodipodi:namedview
     id="namedview2"
     pagecolor="#ffffff"
     bordercolor="#999999"
     borderopacity="1"
     inkscape:showpageshadow="2"
     inkscape:pageopacity="0"
     inkscape:pagecheckerboard="0"
     inkscape:deskcolor="#d1d1d1"
     inkscape:zoom="12.633694"
     inkscape:cx="21.648459"
     inkscape:cy="15.118302"
     inkscape:window-width="1440"
     inkscape:window-height="900"
     inkscape:window-x="0"
     inkscape:window-y="0"
     inkscape:window-maximized="0"
     inkscape:current-layer="svg2" />
  <defs
     id="defs2">
    <linearGradient
       id="paint0_linear_1478_17766"
       x1="10.6108"
       y1="3.85718"
       x2="14.2717"
       y2="25.6045"
       gradientUnits="userSpaceOnUse"
       gradientTransform="translate(-39.220339,0.33050847)">
      <stop
         offset="0.0001"
         stop-color="#fff"
         id="stop1" />
      <stop
         offset="1"
         stop-color="#fff"
         id="stop2" />
    </linearGradient>
  </defs>
  <path
     d="m 0.55513889,6.2932608 c 0,-1.6460496 1.99009441,-2.662789 3.55436541,-1.8158876 l 5.9012347,3.1949397 c 1.41379,0.765414 2.278855,2.1440635 2.278855,3.6317731 v 3.67468 c 0,1.487731 -0.865065,2.866361 -2.278855,3.631795 L 4.1094816,21.80548 C 2.5452274,22.652339 0.55513395,21.635643 0.55513395,19.989593 Z"
     fill="#fa776c"
     id="path1-3"
     style="stroke-width:0.222934" />
  <path
     d="m 24.907812,0.27109599 c 1.261381,0 1.904217,1.38209831 1.027492,2.20938651 L 22.774039,5.4632979 C 21.876521,6.310177 20.640481,6.7883942 19.349138,6.7883942 h -5.948877 c -0.863365,0 -1.710487,-0.2140275 -2.450809,-0.6191857 L 4.596127,2.692251 C 3.3532999,2.012093 3.8820036,0.27109192 5.3313766,0.27109258 Z"
     fill="#624cf5"
     id="path2"
     style="stroke-width:0.227469" />
  <path
     d="m 24.928775,25.847491 c 1.242914,0 1.876339,-1.347266 1.012449,-2.153677 l -3.114982,-2.907679 c -0.884378,-0.825512 -2.102297,-1.291677 -3.374758,-1.291677 h -5.861783 c -0.850724,0 -1.685444,0.208613 -2.414927,0.60356 L 4.9144649,23.487339 C 3.6898335,24.150384 4.2107967,25.847491 5.63895,25.847491 Z"
     fill="#624cf5"
     id="path3"
     style="stroke-width:0.222934" />
  <rect
     x="13.697726"
     y="9.9649115"
     width="7.0406728"
     height="6.3530326"
     rx="3.5203364"
     fill="#fa776c"
     id="rect3"
     style="stroke-width:0.222934" />
  <path
     style="fill:#ffffff;fill-opacity:1;stroke:#000000;stroke-width:0.156874"
     d="M 2.1932135,21.915986 C 1.9087678,21.832663 1.4467699,21.503365 1.1665516,21.184215 L 0.65706364,20.60394 V 13.141273 5.6786055 L 1.1648665,5.1002501 C 1.765789,4.4158371 2.6462726,4.1226599 3.427728,4.3467784 c 0.7970384,0.2285876 6.93038,3.5852815 7.470206,4.0883414 0.256877,0.2393816 0.644955,0.7839003 0.862396,1.2100415 0.37053,0.7261657 0.395347,0.9456267 0.395347,3.4961117 0,2.550484 -0.02482,2.769946 -0.395347,3.496111 -0.217441,0.426141 -0.605519,0.971096 -0.862396,1.21101 -0.602074,0.562316 -7.0472955,4.026597 -7.6947488,4.135896 -0.2710387,0.04576 -0.725526,0.01502 -1.0099717,-0.0683 z"
     id="path4" />
  <path
     style="fill:#ffffff;fill-opacity:1;stroke:#000000;stroke-width:0.156874"
     d="M 11.822133,6.4348944 C 10.749934,6.0440216 4.4225061,2.5014309 4.1811801,2.1568899 3.837585,1.6663392 3.8856347,1.2738082 4.34558,0.81386292 L 4.7487781,0.41066477 H 15.112464 25.476149 l 0.403198,0.40319815 C 26.598544,1.5330595 26.454023,1.813067 24.296048,3.8814669 21.399344,6.657935 21.668699,6.5626051 16.590857,6.6084755 13.503912,6.6363612 12.249525,6.5907016 11.822133,6.4348944 Z"
     id="path5" />
  <path
     style="fill:#ffffff;fill-opacity:1;stroke:#000000;stroke-width:0.156874"
     d="M 4.6741118,25.304417 C 4.1986287,24.828934 4.1616296,24.391216 4.558379,23.93524 4.7164849,23.753532 6.4720768,22.728947 8.4596944,21.658385 l 3.6138496,-1.946476 4.050869,-0.05136 c 2.50442,-0.03175 4.29758,0.01507 4.697119,0.122657 0.91751,0.24706 1.732161,0.84494 3.719754,2.729967 1.889593,1.792084 2.034643,2.094661 1.338061,2.791243 l -0.403198,0.403198 H 15.27673 5.0773099 Z"
     id="path6" />
  <path
     style="fill:#ffffff;fill-opacity:1;stroke:#000000;stroke-width:0.156874"
     d="m 15.687394,15.868766 c -3.227414,-1.494244 -2.064145,-5.748511 1.575757,-5.762805 2.616256,-0.01027 4.250638,2.634979 2.853556,4.61849 -0.954756,1.355518 -2.892086,1.856028 -4.429313,1.144315 z"
     id="path7" />
</svg>
